<?xml version="1.0" encoding="UTF-8"?>
<svg version="1.1" xmlns="http://www.w3.org/2000/svg" width="331" height="442">
<path d="M0 0 C10.49440625 6.04160041 14.61730445 19.37004409 19.3125 29.875 C19.98374466 31.36560778 20.65545931 32.85600401 21.32763672 34.34619141 C23.2264034 38.56057368 25.11505125 42.77942229 27 47 C27.68956787 48.54300781 27.68956787 48.54300781 28.39306641 50.1171875 C31.17771747 56.35663564 31.17771747 56.35663564 32.55029297 59.48168945 C33.83776414 62.41273313 35.15425203 65.31821765 36.55078125 68.19921875 C39.16906771 73.60542713 41.63062778 78.85447041 41 85 C39.24547286 88.17164522 37.77577972 89.53872557 34.6875 91.375 C30.28793897 92.39815373 26.94862232 92.19146533 23.01953125 89.7890625 C13.9860255 82.62516046 9.56778791 71.38418969 4.67578125 61.2265625 C2.97452586 57.9509519 1.09997155 55.02871714 -1 52 C-1.03738281 53.24394531 -1.07476562 54.48789063 -1.11328125 55.76953125 C-1.61781491 69.59208553 -2.41578804 83.23569968 -12.67578125 93.7109375 C-31.49032186 108.93983761 -60.03406097 115.23376041 -83.625 115.125 C-85.11495483 115.1242749 -85.11495483 115.1242749 -86.63500977 115.12353516 C-94.65293285 115.08685722 -102.643714 114.75647383 -110.64111328 114.18017578 C-118.72808854 113.68768497 -125.54064804 114.6172067 -132 120 C-134.90839596 124.49479376 -134.5030584 129.84987733 -134 135 C-131.67144923 145.45586304 -127.64094875 155.10123742 -123.375 164.875 C-116.99425352 179.54861566 -110.84698962 195.41770986 -116.4375 211.5 C-122.51966103 223.94273084 -134.86353696 232.32697418 -146.8125 238.5 C-147.7190332 238.96994385 -148.62556641 239.4398877 -149.55957031 239.92407227 C-170.6276799 250.56211756 -192.93184501 255.4753113 -216.3203125 257.45703125 C-217.24102539 257.53743652 -218.16173828 257.6178418 -219.11035156 257.70068359 C-220.89527921 257.85357831 -222.68109727 257.99655308 -224.46777344 258.12744141 C-231.41583661 258.71204633 -238.82537012 259.67710009 -244.5625 263.875 C-246.23828256 266.35224378 -246.64142359 268.03955816 -247 271 C-244.21027693 283.27917478 -235.17364112 294.91475458 -228 305 C-225.64300009 308.3313388 -223.2899317 311.66543458 -220.9375 315 C-220.35162109 315.825 -219.76574219 316.65 -219.16210938 317.5 C-208.05510561 333.27909524 -200.70111704 347.28673305 -203 367 C-203.83533776 370.72868641 -205.05520933 373.72233099 -207 377 C-207.63615234 378.09248047 -207.63615234 378.09248047 -208.28515625 379.20703125 C-215.15339288 390.1311625 -224.16790265 399.650326 -233 409 C-233.47791992 409.51191895 -233.95583984 410.02383789 -234.44824219 410.55126953 C-235.86992067 412.0672479 -237.30701551 413.5668152 -238.75 415.0625 C-239.59046875 415.94035156 -240.4309375 416.81820313 -241.296875 417.72265625 C-246.3331903 421.96567911 -251.10474906 423.41364948 -257.625 423.3125 C-259.25308594 423.30669922 -259.25308594 423.30669922 -260.9140625 423.30078125 C-263.97941879 423.00200602 -266.22326641 422.29546493 -269 421 C-268.48751744 416.86217786 -266.32569018 415.04914415 -263.375 412.25 C-259.72068052 408.70407135 -256.2748533 405.11751707 -252.96875 401.25 C-250.92184239 398.91067701 -248.81539753 396.6383718 -246.69311523 394.36767578 C-231.2326768 378.99262271 -231.2326768 378.99262271 -224.3125 359.125 C-224.89159577 347.20781873 -232.89121196 337.9807306 -240 329 C-272.85394606 287.18588683 -272.85394606 287.18588683 -272 264.8125 C-270.80743925 255.38381659 -266.76844798 248.66287893 -259.4296875 242.68359375 C-247.41042188 234.35513156 -231.52087478 233.98972135 -217.42453003 232.80441284 C-191.30812494 230.58587504 -163.84991563 225.18993044 -143 208 C-139.81565306 204.00744318 -138.46405384 201.0615317 -138 196 C-139.75875698 186.44153816 -143.69959482 177.39522628 -147.5 168.5 C-152.69583829 156.33862374 -157.81544336 144.24517996 -157.4375 130.8125 C-157.42356201 129.95809326 -157.40962402 129.10368652 -157.39526367 128.22338867 C-157.20825735 121.81827001 -156.48228108 115.95948454 -154 110 C-153.67128906 109.20464844 -153.34257812 108.40929687 -153.00390625 107.58984375 C-149.40512348 100.13077496 -143.43069099 95.14500704 -135.75 92.125 C-124.98728027 88.89618408 -113.95854266 89.48104038 -102.9375 91 C-80.56742726 93.91352998 -50.85937345 93.26654921 -31.69140625 79.3203125 C-31.13324219 78.88460937 -30.57507813 78.44890625 -30 78 C-29.34 78 -28.68 78 -28 78 C-24.71176064 70.24915008 -23.56619515 63.15594995 -22.9375 54.8125 C-22.8139917 53.28580688 -22.8139917 53.28580688 -22.68798828 51.72827148 C-22.52623859 49.72337603 -22.36728805 47.71825236 -22.21142578 45.71289062 C-21.94763322 42.32806046 -21.66230441 38.94540822 -21.375 35.5625 C-21.24966054 34.04169461 -21.1245938 32.52086666 -21 31 C-21.79096069 31.52001587 -21.79096069 31.52001587 -22.59790039 32.05053711 C-40.39171682 43.7309273 -40.39171682 43.7309273 -49.375 49.1875 C-50.25490601 49.7297522 -50.25490601 49.7297522 -51.15258789 50.28295898 C-55.87951202 53.11911346 -60.00232418 55.03504694 -65.5625 54.9375 C-69.69431615 53.81064105 -71.32952044 52.2988277 -74 49 C-74.33 48.01 -74.66 47.02 -75 46 C-74.175 45.35675781 -73.35 44.71351562 -72.5 44.05078125 C-66.65666895 39.48262386 -60.84048174 34.88879786 -55.10522461 30.18530273 C-13.49122235 -3.91755426 -13.49122235 -3.91755426 0 0 Z " fill="#FBFAEE" transform="translate(281,10)"/>
</svg>
