<?xml version="1.0" encoding="UTF-8"?>
<svg version="1.1" xmlns="http://www.w3.org/2000/svg" width="341" height="312">
<path d="M0 0 C0 0.66 0 1.32 0 2 C0.99 2 1.98 2 3 2 C3 2.66 3 3.32 3 4 C3.99 4 4.98 4 6 4 C6 4.66 6 5.32 6 6 C6.99 6 7.98 6 9 6 C9 6.66 9 7.32 9 8 C9.61875 8.309375 10.2375 8.61875 10.875 8.9375 C12.25 9.625 13.625 10.3125 15 11 C15 11.66 15 12.32 15 13 C15.99 13.33 16.98 13.66 18 14 C18 14.66 18 15.32 18 16 C18.66 16 19.32 16 20 16 C20 16.66 20 17.32 20 18 C20.99 18.33 21.98 18.66 23 19 C23 19.66 23 20.32 23 21 C23.58652344 21.24878906 24.17304688 21.49757813 24.77734375 21.75390625 C27.31056333 23.17411196 28.70985353 24.71183746 30.5625 26.9375 C33.01481064 29.86998811 33.01481064 29.86998811 35.71484375 32.56640625 C37 34 37 34 37 37 C37.99 37.33 38.98 37.66 40 38 C41.3515625 39.5234375 41.3515625 39.5234375 42.625 41.375 C43.05039063 41.98085938 43.47578125 42.58671875 43.9140625 43.2109375 C45 45 45 45 46 48 C46.66 48.33 47.32 48.66 48 49 C49.33874771 51.48244608 50.59408566 53.95940995 51.8125 56.5 C53.95530052 60.9036816 56.07887717 65.24925234 58.625 69.4375 C62.09838324 75.51592066 64.06006091 82.32095472 66.28051758 88.93041992 C66.97959553 90.94130686 67.74187246 92.91683847 68.51953125 94.8984375 C70.27093074 99.52170054 71.41520619 104.25979057 72.5625 109.0625 C72.97935245 110.78282296 73.39730128 112.50288066 73.81640625 114.22265625 C74.01637207 115.04330566 74.21633789 115.86395508 74.42236328 116.70947266 C74.9192032 118.67961302 75.468317 120.63643851 76.02734375 122.58984375 C77.35656394 127.25012175 78.41859418 131.96089178 79.5 136.68359375 C80.27994617 140.05320494 81.10742217 143.37577942 82.05859375 146.703125 C82.87152017 149.55005405 83.51851361 152.34264416 84.0625 155.25 C84.57002801 157.95122346 85.12805666 160.38416999 86 163 C87.00865274 167.07134733 87.93441598 171.16244985 88.875 175.25 C89.14602539 176.42409424 89.41705078 177.59818848 89.69628906 178.80786133 C91.38339738 186.16688162 92.97275384 193.5272401 94.359375 200.94921875 C95.40023129 205.90597949 96.80151115 210.71300617 98.625 215.4375 C99.07875 216.613125 99.5325 217.78875 100 219 C100.40992188 218.4225 100.81984375 217.845 101.2421875 217.25 C102.05042969 216.13625 102.05042969 216.13625 102.875 215 C103.40867187 214.2575 103.94234375 213.515 104.4921875 212.75 C104.98976563 212.1725 105.48734375 211.595 106 211 C106.66 211 107.32 211 108 211 C108.33 210.01 108.66 209.02 109 208 C109.66 208 110.32 208 111 208 C111 207.01 111 206.02 111 205 C111.66 205 112.32 205 113 205 C113.33 204.01 113.66 203.02 114 202 C114.66 202 115.32 202 116 202 C116 201.34 116 200.68 116 200 C118.96334554 196.91318173 122.00226615 196.36944974 126.1015625 195.99609375 C128.5909059 196.00121586 130.02634045 196.48180034 132 198 C135.20155525 202.80233287 135.56161433 207.2964945 135 213 C133.34348944 217.92358841 130.65829207 222.41006887 128.12841797 226.92578125 C126.28435167 230.31547993 124.67469816 233.80811288 123.0625 237.3125 C122.76859375 237.94067627 122.4746875 238.56885254 122.171875 239.21606445 C120.9751865 241.78915742 119.89843252 244.30470245 119 247 C118.34 247 117.68 247 117 247 C116.896875 247.680625 116.79375 248.36125 116.6875 249.0625 C115.85274981 252.62915989 114.50527246 255.66222194 113 259 C112.34 259 111.68 259 111 259 C110.67 260.98 110.34 262.96 110 265 C109.34 265 108.68 265 108 265 C107.89945312 265.86367188 107.79890625 266.72734375 107.6953125 267.6171875 C106.33048589 274.25729897 102.408457 281.96136625 96.625 285.8125 C88.74726581 288.39313706 82.78234404 285.78228838 75.578125 282.25390625 C73.08973039 281.0436416 70.57990583 279.99762545 68 279 C68 278.34 68 277.68 68 277 C67.01 277 66.02 277 65 277 C65 276.34 65 275.68 65 275 C64.38125 274.855625 63.7625 274.71125 63.125 274.5625 C61 274 61 274 59 273 C59 272.34 59 271.68 59 271 C58.01 271 57.02 271 56 271 C54.3125 269.625 54.3125 269.625 53 268 C53 267.34 53 266.68 53 266 C52.4225 265.7525 51.845 265.505 51.25 265.25 C48.67060021 263.81700012 46.93878408 262.21575324 45 260 C45 259.34 45 258.68 45 258 C44.01 257.67 43.02 257.34 42 257 C39 253.55555556 39 253.55555556 39 251 C38.34 251 37.68 251 37 251 C36.67 250.01 36.34 249.02 36 248 C35.34 247.67 34.68 247.34 34 247 C34 246.01 34 245.02 34 244 C33.01 243.67 32.02 243.34 31 243 C28.89709804 239.03619671 27.93959095 235.08736286 28.1875 230.625 C29 228 29 228 31 225 C31.66 225 32.32 225 33 225 C33 224.34 33 223.68 33 223 C43.08292609 225.14851135 50.76854925 228.54303113 57 237 C58.64295195 238.36244796 60.30824337 239.69864875 62 241 C63.8125 242.625 63.8125 242.625 65 244 C65 244.66 65 245.32 65 246 C65.99 246.33 66.98 246.66 68 247 C68 247.66 68 248.32 68 249 C68.66 249 69.32 249 70 249 C70 249.66 70 250.32 70 251 C70.639375 251.144375 71.27875 251.28875 71.9375 251.4375 C74 252 74 252 75 253 C75.34955494 245.31792041 74.03199046 238.53165044 72.3125 231.0625 C71.76049263 228.58910455 71.21107845 226.11512914 70.6640625 223.640625 C70.38594727 222.38314453 70.10783203 221.12566406 69.82128906 219.83007812 C68.26058857 212.55175786 66.9089503 205.23276467 65.56176758 197.91235352 C65.27402466 196.37212524 65.27402466 196.37212524 64.98046875 194.80078125 C64.81442139 193.89497314 64.64837402 192.98916504 64.47729492 192.0559082 C64.19543231 190.01913866 64.19543231 190.01913866 63 189 C62.65458149 186.66842508 62.32205743 184.33491639 62 182 C61.67 181.01 61.34 180.02 61 179 C60.7834375 177.39125 60.7834375 177.39125 60.5625 175.75 C60.00271286 172.01808573 59.04394465 168.62310202 58 165 C57.48875178 162.54680118 57.01646933 160.08940495 56.5625 157.625 C56.01656933 155.07732352 55.31931781 152.60192015 54.58886719 150.10205078 C53.32127767 145.57719767 52.24828988 140.9998399 51.125 136.4375 C46.93534901 119.16633505 46.93534901 119.16633505 41.00390625 102.44140625 C39.8925573 99.73870938 38.91255777 97.0046309 37.9375 94.25 C36.5312433 90.33884856 34.92771413 86.68780095 33 83 C32.55785156 81.95457031 32.11570313 80.90914063 31.66015625 79.83203125 C29.93898485 75.78115603 27.98714609 71.8632341 26 67.9375 C25.48566406 66.9155957 25.48566406 66.9155957 24.9609375 65.87304688 C24.29009608 64.54032565 23.61699793 63.20873746 22.94140625 61.87841797 C22.06031832 60.12035508 21.21622096 58.34388996 20.375 56.56640625 C19.25802637 53.88851263 19.25802637 53.88851263 17 53 C14 48.5 14 48.5 14 46 C13.34 46 12.68 46 12 46 C12 45.01 12 44.02 12 43 C11.01 42.67 10.02 42.34 9 42 C7.421875 40.36328125 7.421875 40.36328125 5.75 38.3125 C2.8504642 34.86891484 -0.18137449 32.00674271 -3.71484375 29.2265625 C-4.13894531 28.82179687 -4.56304687 28.41703125 -5 28 C-5 27.34 -5 26.68 -5 26 C-5.61875 25.855625 -6.2375 25.71125 -6.875 25.5625 C-9 25 -9 25 -11 24 C-11 23.34 -11 22.68 -11 22 C-11.72960937 21.85949219 -12.45921875 21.71898438 -13.2109375 21.57421875 C-14.91302156 21.22378968 -16.60905493 20.83890185 -18.2890625 20.39453125 C-28.7249671 17.79428077 -36.59850085 20.25695763 -45.6875 25.66015625 C-48 27 -48 27 -51 28 C-51.33 28.99 -51.66 29.98 -52 31 C-52.99 31.495 -52.99 31.495 -54 32 C-53.7834375 32.86625 -53.7834375 32.86625 -53.5625 33.75 C-53.04166667 35.83333333 -52.52083333 37.91666667 -52 40 C-51.34 40 -50.68 40 -50 40 C-49.2265625 41.3921875 -49.2265625 41.3921875 -48.4375 42.8125 C-46.60246591 46.0465849 -44.60421813 49.1428438 -42.5625 52.25 C-37.62924657 59.97207335 -34.13588305 67.86612771 -31.6796875 76.68359375 C-31.06507106 78.77823483 -30.33039967 80.73392658 -29.5 82.75 C-24.82079986 95.00504798 -22.58162157 107.80470782 -28.02734375 120.00390625 C-28.67805147 121.33929438 -29.33566846 122.67133691 -30 124 C-30.66 124 -31.32 124 -32 124 C-32 124.99 -32 125.98 -32 127 C-38.39473163 132.93134528 -46.38194263 135.47860643 -54.875 136.4375 C-61.48093416 136.18082771 -68.54545123 133.63636585 -74 130 C-74 129.34 -74 128.68 -74 128 C-74.99 127.67 -75.98 127.34 -77 127 C-83.40800784 119.41156966 -87.18936961 109.72115152 -89 100 C-89.18433594 99.07058594 -89.36867188 98.14117187 -89.55859375 97.18359375 C-92.57723414 80.21675296 -92.9565956 55.91319121 -85 40 C-85.66 40 -86.32 40 -87 40 C-90 36.53846154 -90 36.53846154 -90 34 C-90.66 34 -91.32 34 -92 34 C-92 33.34 -92 32.68 -92 32 C-92.59039062 31.72285156 -93.18078125 31.44570313 -93.7890625 31.16015625 C-96 30 -96 30 -97.6484375 28.74609375 C-104.96488991 23.20081873 -113.60262971 23.35437805 -122.40234375 24.515625 C-128.94733464 25.53639689 -135.03338929 26.8822214 -141.20947266 29.30859375 C-143.3569179 30.13782267 -145.53016745 30.76887551 -147.75 31.375 C-152.60410835 32.79788367 -157.18051445 34.6773896 -161.828125 36.6640625 C-180.21330528 44.40757439 -180.21330528 44.40757439 -186 43 C-187.7704631 37.89690047 -188.39609497 34.38493774 -187 29 C-185.0625 26.0625 -185.0625 26.0625 -183 24 C-182.34 24 -181.68 24 -181 24 C-180.67 23.01 -180.34 22.02 -180 21 C-179.34 21 -178.68 21 -178 21 C-177.67 20.01 -177.34 19.02 -177 18 C-176.01 18 -175.02 18 -174 18 C-173.67 17.01 -173.34 16.02 -173 15 C-170.6119523 13.67788728 -168.3006852 12.53418827 -165.8125 11.4375 C-165.15185547 11.13392578 -164.49121094 10.83035156 -163.81054688 10.51757812 C-159.93795923 8.76287158 -156.06194092 7.27375893 -152 6 C-150.989375 5.67 -149.97875 5.34 -148.9375 5 C-139.60234109 2.4650215 -130.44110716 1.80334408 -120.8125 1.75 C-119.89847412 1.74081543 -118.98444824 1.73163086 -118.04272461 1.72216797 C-102.35636479 1.79280816 -87.34778891 6.92472646 -74 15 C-73.030625 14.21625 -72.06125 13.4325 -71.0625 12.625 C-70.51722656 12.18414063 -69.97195312 11.74328125 -69.41015625 11.2890625 C-67.86733563 10.0333609 -67.86733563 10.0333609 -67 8 C-66.01 8 -65.02 8 -64 8 C-64 7.34 -64 6.68 -64 6 C-62.68 5.67 -61.36 5.34 -60 5 C-60 4.34 -60 3.68 -60 3 C-52.27151963 -2.23819225 -43.9793877 -4.05128182 -35 -6 C-34.12214844 -6.20753906 -33.24429688 -6.41507813 -32.33984375 -6.62890625 C-21.61006337 -8.33062434 -9.51050452 -4.73228002 0 0 Z M-66 63 C-69.97724571 77.16893783 -69.13990682 93.53943504 -63 107 C-60.8755173 110.44312714 -59.85147359 111.71617547 -56 113 C-52.99514847 113.23287322 -52.99514847 113.23287322 -50.625 111.75 C-48.65977445 110.03162353 -48.65977445 110.03162353 -49 107 C-48.01 106.505 -48.01 106.505 -47 106 C-48.44886168 95.20922421 -52.10431068 85.67954818 -57 76 C-58.07091536 73.71225381 -59.1334201 71.42055177 -60.1875 69.125 C-60.71730469 67.97257812 -61.24710937 66.82015625 -61.79296875 65.6328125 C-62.19128906 64.76398438 -62.58960938 63.89515625 -63 63 C-63.99 63 -64.98 63 -66 63 Z " fill="#FBFAEE" transform="translate(197,16)"/>
</svg>
