<?xml version="1.0" encoding="UTF-8"?>
<svg version="1.1" xmlns="http://www.w3.org/2000/svg" width="467" height="544">
<path d="M0 0 C1.21623047 1.03447266 1.21623047 1.03447266 2.45703125 2.08984375 C13.5583938 11.79287799 22.00884864 22.70421415 30 35 C30.65097656 35.99902344 31.30195313 36.99804688 31.97265625 38.02734375 C40.32970757 51.60041344 45.5665866 67.07869425 51 82 C57.20525806 82.2366412 63.10386228 81.90534394 69.25 81 C93.56864902 77.62100648 118.70890756 79.44558225 138.9375 94.5625 C153.36620235 106.04656922 162.3864261 120.97958477 171 137 C172.8871875 136.41992188 172.8871875 136.41992188 174.8125 135.828125 C217.77728217 122.71078286 259.93416423 119.69516791 301 141 C311.39919718 146.66460334 320.2600131 154.07379769 329 162 C330.01320313 162.88751953 330.01320313 162.88751953 331.046875 163.79296875 C341.24788649 173.24104844 348.48005896 185.66212998 354.17724609 198.1953125 C354.90294572 199.78711417 355.66188791 201.36367044 356.42578125 202.9375 C374.46621735 242.25783131 368.49543016 292.30108388 354.33276367 331.81616211 C349.42332967 344.93259793 343.27204414 357.4914348 337 370 C336.62343262 370.75571289 336.24686523 371.51142578 335.85888672 372.29003906 C324.98867071 393.9471345 310.68294035 414.44690628 294 432 C292.76332207 433.41011447 291.53355527 434.826336 290.3125 436.25 C284.67695638 442.71507457 278.50000642 448.4210895 272 454 C270.90968948 454.95389382 269.81988613 455.90836753 268.73046875 456.86328125 C262.07027657 462.67516371 255.3813424 468.11512919 248 473 C246.87017263 473.77470001 245.74133631 474.55084656 244.61328125 475.328125 C234.75998198 482.06916783 224.53150758 487.94228895 214.02734375 493.6015625 C213.21394531 494.04242187 212.40054687 494.48328125 211.5625 494.9375 C210.88316406 495.29714844 210.20382812 495.65679688 209.50390625 496.02734375 C207.82056268 496.93539916 207.82056268 496.93539916 207 499 C216.6429869 500.68296544 225.59216686 501.19864842 235.375 500.75 C237.3406189 500.6737439 237.3406189 500.6737439 239.34594727 500.59594727 C254.24396134 499.9973321 269.12585689 499.02011943 284 498 C283.71894042 499.42477916 283.42791272 500.84759384 283.1328125 502.26953125 C282.97184082 503.06206299 282.81086914 503.85459473 282.64501953 504.67114258 C281.47305155 508.90255916 279.56790865 511.46362956 276 514 C270.8829689 516.52940843 265.45192452 518.34215907 260 520 C258.80117188 520.36480469 257.60234375 520.72960937 256.3671875 521.10546875 C243.38901677 524.14509295 229.26841016 523.18625628 216.03320312 523.18530273 C212.63919555 523.18749085 209.24551297 523.20571046 205.8515625 523.22460938 C173.56950743 523.31464748 173.56950743 523.31464748 164 517 C160.90457836 512.35686754 161.10140432 508.43650387 162 503 C164.14225139 497.37981639 167.05851209 492.23562133 170 487 C171.06427229 485.07447857 172.12804424 483.14868053 173.19140625 481.22265625 C176.75774184 474.79433382 180.37574869 468.39579546 184 462 C185.10051363 460.05352856 186.20078263 458.10691878 187.30078125 456.16015625 C188.89619571 453.33671644 190.49225952 450.51366017 192.09106445 447.69213867 C194.97350668 442.60235369 197.83761662 437.50307728 200.6796875 432.390625 C201.29650391 431.28267578 201.91332031 430.17472656 202.54882812 429.03320312 C203.72484225 426.91889323 204.89822889 424.80311865 206.06835938 422.68554688 C211.69271123 412.58043908 217.70111147 402.98495396 225 394 C226.88671875 394.27734375 226.88671875 394.27734375 229 395 C231.91265881 400.7248811 232.25919547 404.67679438 231 411 C230.04434388 413.54996019 229.06586955 415.90696726 227.89453125 418.34765625 C227.57845413 419.02984222 227.26237701 419.7120282 226.9367218 420.41488647 C225.90532861 422.63558473 224.85895254 424.84886414 223.8125 427.0625 C223.09170582 428.6082322 222.37215775 430.15454603 221.65380859 431.70141602 C220.54754242 434.08301766 219.44040833 436.46417518 218.32910156 438.84342957 C214.51705842 447.00677669 210.81618894 455.2189828 207.125 463.4375 C205.98289782 465.97837345 204.83943454 468.51862932 203.6953125 471.05859375 C203.22109863 472.11361084 202.74688477 473.16862793 202.25830078 474.25561523 C201.21565817 476.52964425 200.13740178 478.77228206 199 481 C205.84634917 478.46395798 211.59740758 474.50844752 217.625 470.4375 C218.69733887 469.7165918 219.76967773 468.99568359 220.87451172 468.25292969 C228.48451347 463.10264487 235.89898128 457.84009016 243 452 C243.54736816 451.55269531 244.09473633 451.10539062 244.65869141 450.64453125 C252.39158614 444.29289901 259.62294162 437.58540786 266.55834961 430.36816406 C268.00431365 428.87775743 269.49809754 427.43401986 271 426 C271.66 426 272.32 426 273 426 C273.22945313 425.44828125 273.45890625 424.8965625 273.6953125 424.328125 C275.36793899 421.34343821 277.50005108 419.21443975 279.875 416.75 C319.06287928 374.97608547 347.45060347 311.98863161 346.28125 254.49609375 C345.99005805 246.11825866 344.99065022 238.13930716 343 230 C342.80664062 229.20045898 342.61328125 228.40091797 342.4140625 227.57714844 C337.7270313 208.8941213 329.58858616 193.52964061 317 179 C316.34515625 178.24332031 315.6903125 177.48664063 315.015625 176.70703125 C298.01338077 158.50591083 271.83710948 147.20490306 247.17480469 145.77880859 C242.94982326 145.6354268 238.72708028 145.61289673 234.5 145.625 C233.37732224 145.62631424 233.37732224 145.62631424 232.23196411 145.62765503 C213.1855048 145.70106207 197.35750461 149.14364897 180 157 C178.33577656 157.67274256 176.66955924 158.34061077 175 159 C174.9232605 160.09054688 174.9232605 160.09054688 174.8449707 161.203125 C172.95137225 186.1052417 169.26102673 211.24662553 150 229 C141.08724614 235.88953229 131.04075262 240.91030247 119.5703125 240.37109375 C114.28975373 239.60870305 110.67492624 237.99308908 107.2109375 233.87109375 C102.6882352 227.3656902 101.13971229 221.90467261 102 214 C105.80387244 199.41445088 116.89195438 186.67543443 126 175 C126.44134277 174.42797852 126.88268555 173.85595703 127.33740234 173.26660156 C133.80354591 164.93555945 141.19445832 156.42389555 151 152 C149.34310487 139.31167153 145.79245326 130.16778441 138 120 C137.38898438 119.17113281 136.77796875 118.34226563 136.1484375 117.48828125 C125.10241849 104.69498287 107.92939673 100.11911393 91.71484375 98.81640625 C80.24512562 98.45194792 68.98266674 101.03454569 58.046875 104.1953125 C55 105 55 105 52 105 C51.92523438 105.58523437 51.85046875 106.17046875 51.7734375 106.7734375 C48.58153237 127.61470041 39.82117663 147.72037391 24 162 C23.34 162 22.68 162 22 162 C22 162.66 22 163.32 22 164 C10.96802965 172.17918587 -2.96263051 179.30856834 -17 178 C-22.62913115 176.18722895 -28.04420635 173.49248866 -31.0390625 168.14453125 C-34.34809798 160.15027263 -33.22241054 152.8324071 -30 145 C-25.23496612 136.07686067 -18.65701433 126.68888608 -11 120 C-10.34 120 -9.68 120 -9 120 C-9 119.34 -9 118.68 -9 118 C-6.6279134 115.9413238 -4.24834146 114.02128843 -1.75 112.125 C-0.99944336 111.55289795 -0.24888672 110.9807959 0.52441406 110.39135742 C10.46620605 102.96966092 21.3549111 95.44392275 33 91 C26.97184379 62.64752565 17.9482949 38.58660834 -3 18 C-4.14082031 16.86111328 -4.14082031 16.86111328 -5.3046875 15.69921875 C-22.04659178 -0.09213785 -44.48350473 -7.81729494 -67.26953125 -7.2890625 C-76.86350243 -6.54565531 -85.91777065 -4.3741746 -94.828125 -0.76953125 C-97 0 -97 0 -100 0 C-99.966164 -10.60758718 -99.966164 -10.60758718 -96.875 -15.0625 C-70.19664346 -32.35521785 -21.98450291 -18.90588311 0 0 Z M0.41064453 135.57617188 C-4.67148572 140.70579867 -14 150.43099568 -14 158 C-1.02806366 157.25161906 10.94771326 150.59241534 19.8125 141.25 C26.39917448 133.172003 28.80813196 124.19314011 30 114 C21.82811432 114 6.46947646 129.91024723 0.41064453 135.57617188 Z M136.91113281 189.05517578 C128.74639816 197.36384673 121.79063106 208.14053411 121 220 C130.14801081 218.83302501 138.00738109 214.03857666 144.27734375 207.34375 C149.96418424 199.60655205 152.17803112 190.59855208 152.0625 181.125 C152.05347656 180.15820312 152.04445312 179.19140625 152.03515625 178.1953125 C152.02355469 177.47085938 152.01195312 176.74640625 152 176 C147.61220099 176 139.97866178 186.05310807 136.91113281 189.05517578 Z " fill="#FBFAEE" transform="translate(100,21)"/>
</svg>
