<?xml version="1.0" encoding="UTF-8"?>
<svg version="1.1" xmlns="http://www.w3.org/2000/svg" width="149" height="113">
<path d="M0 0 C5.0152257 3.4006917 6.89627586 6.12404402 8.9375 11.9375 C9.43684347 13.28035135 9.94087272 14.62146821 10.44921875 15.9609375 C10.70364746 16.63608398 10.95807617 17.31123047 11.22021484 18.00683594 C14.52512723 26.45433271 18.86097399 34.16761826 24.0625 41.5625 C24.46178711 42.13427979 24.86107422 42.70605957 25.27246094 43.29516602 C28.13464909 47.22106811 31.25756338 49.9795086 35 53 C36.62073594 56.24147188 36.56004036 59.4964917 36 63 C33.53350162 67.16221601 31.98729936 68.69027975 27.3515625 70.14453125 C4.07506843 75.35236894 -23.37743334 68.96005581 -46.4375 64.5 C-47.21730225 64.35070038 -47.99710449 64.20140076 -48.80053711 64.0475769 C-51.03469015 63.61538805 -53.26573794 63.17008866 -55.49609375 62.71875 C-56.77669678 62.46029297 -58.0572998 62.20183594 -59.37670898 61.93554688 C-64.30126083 60.66400974 -68.59262694 59.26302711 -72.4375 55.8125 C-74.46531642 52.16243044 -74.93658338 49.02966966 -74 45 C-72.23851565 41.9840268 -70.17259122 39.58629561 -67 38 C-58.82945822 37.15361136 -51.10927859 39.0275026 -43.1875 40.8125 C-34.19644108 42.75604953 -25.23538862 44.5869881 -16.125 45.875 C-15.29508545 45.99464111 -14.4651709 46.11428223 -13.61010742 46.23754883 C-9.03021855 46.85501387 -4.62056651 47.1108936 0 47 C-0.54269531 46.07058594 -1.08539063 45.14117187 -1.64453125 44.18359375 C-2.36739282 42.93501468 -3.09003747 41.68631001 -3.8125 40.4375 C-4.16892578 39.82841797 -4.52535156 39.21933594 -4.89257812 38.59179688 C-9.91105159 29.89004013 -16.84901224 17.27229021 -15 7 C-11.40344918 1.16058169 -6.92842699 -1.60070554 0 0 Z " fill="#FCFAEE" transform="translate(109,38)"/>
<path d="M0 0 C2.41015625 0.9765625 2.41015625 0.9765625 5 2.25 C14.72354524 6.89525643 24.26243697 8.84870537 34.93359375 9.73828125 C35.99676064 9.82816315 35.99676064 9.82816315 37.08140564 9.91986084 C40.6877954 10.21753641 44.29291359 10.48043143 47.9050293 10.69775391 C59.19819039 11.47129579 59.19819039 11.47129579 62.8984375 14.47265625 C65.84013922 18.0103533 66.39326693 20.24286362 66.359375 24.89453125 C65.72418186 28.61593453 63.66020984 30.40312849 61 33 C54.09743144 36.45128428 42.45811846 33.77811917 34.9375 33.125 C33.93912109 33.04636719 32.94074219 32.96773437 31.91210938 32.88671875 C25.18337857 32.31907761 18.62026209 31.32616778 12 30 C15.00189983 39.98667673 15.00189983 39.98667673 19.3125 49.4375 C21.45048703 53.95102818 21.7165146 56.0640105 21 61 C19.22919168 64.01233445 17.17524611 66.41237695 14 68 C9.22506761 68.5665174 6.20939629 68.66144717 2.3125 65.6875 C-1.95858928 61.52294583 -3.93650219 56.50947106 -6 51 C-6.42152344 49.88496094 -6.84304688 48.76992188 -7.27734375 47.62109375 C-17.68708927 18.29029103 -17.68708927 18.29029103 -15 7 C-11.47936263 0.71221961 -6.98165768 -1.03177207 0 0 Z " fill="#FCFAEE" transform="translate(17,3)"/>
</svg>
