<?xml version="1.0" encoding="UTF-8"?>
<svg version="1.1" xmlns="http://www.w3.org/2000/svg" width="133" height="116">
<path d="M0 0 C4.32204842 3.33415164 6.59225913 6.07919444 8.4375 11.25 C11.05472582 17.87814464 14.7762257 23.13613493 19.1875 28.6875 C20.16009766 29.98494141 20.16009766 29.98494141 21.15234375 31.30859375 C27.31104538 38.50753673 36.17567647 41.04699814 45.1875 42.6875 C46.2496875 42.88085938 47.311875 43.07421875 48.40625 43.2734375 C57.72892596 44.72223174 67.01921326 45.03898895 76.4440918 45.17041016 C83.95805511 45.35277363 89.04940066 46.10728499 95 51 C98.50703853 55.30864733 99.42606147 58.78372196 99 64.25 C98.16731467 70.02070301 95.67942756 73.96561717 91.1875 77.6875 C85.88414942 80.00617421 80.98736427 79.95932343 75.3125 79.875 C74.38139404 79.8656543 73.45028809 79.85630859 72.4909668 79.84667969 C69.72256883 79.80963791 66.95537046 79.75243988 64.1875 79.6875 C63.4454834 79.67348145 62.7034668 79.65946289 61.93896484 79.64501953 C46.96750897 79.299497 32.13785221 76.14454954 18.1875 70.6875 C17.3521875 70.36523438 16.516875 70.04296875 15.65625 69.7109375 C4.48681385 64.79779945 -4.09465167 54.87004947 -11.8125 45.6875 C-12.534375 44.883125 -13.25625 44.07875 -14 43.25 C-20.07408237 34.66250424 -26.31408145 22.46146949 -25.8125 11.6875 C-24.24430821 6.46019404 -22.04400042 3.13174453 -17.8125 -0.3125 C-11.98044736 -3.22852632 -5.81744291 -2.71480669 0 0 Z " fill="#FCFAEE" transform="translate(25.8125,32.3125)"/>
<path d="M0 0 C4.47659907 3.45337643 7.0079023 6.0039838 8.1875 11.6875 C8.1875 18.40314469 6.67085766 22.6903442 2.375 27.875 C-1.63279861 31.19574742 -5.28808324 31.90560134 -10.375 31.5 C-16.14570301 30.66731467 -20.09061717 28.17942756 -23.8125 23.6875 C-26.29094015 18.61259874 -26.02893816 14.07173449 -24.8125 8.6875 C-22.63097259 4.01279841 -19.79002529 0.65326817 -15.125 -1.625 C-9.7718512 -2.73603088 -4.969658 -2.31917373 0 0 Z " fill="#FCFAEE" transform="translate(123.8125,32.3125)"/>
<path d="M0 0 C4.47659907 3.45337643 7.0079023 6.0039838 8.1875 11.6875 C8.1875 18.40314469 6.67085766 22.6903442 2.375 27.875 C-1.63279861 31.19574742 -5.28808324 31.90560134 -10.375 31.5 C-16.14570301 30.66731467 -20.09061717 28.17942756 -23.8125 23.6875 C-26.29094015 18.61259874 -26.02893816 14.07173449 -24.8125 8.6875 C-22.63097259 4.01279841 -19.79002529 0.65326817 -15.125 -1.625 C-9.7718512 -2.73603088 -4.969658 -2.31917373 0 0 Z " fill="#FCFAEE" transform="translate(61.8125,5.3125)"/>
</svg>
